<?xml version="1.0" encoding="UTF-8"?>
<svg xmlns="http://www.w3.org/2000/svg" xmlns:xlink="http://www.w3.org/1999/xlink" width="538px" height="520px" viewBox="0 0 538 520" version="1.1">
<g id="surface1">
<path style=" stroke:none;fill-rule:nonzero;fill:rgb(90.196078%,90.196078%,90.196078%);fill-opacity:1;" d="M 351.125 227.015625 C 350.503906 231.800781 349.761719 236.539062 348.894531 241.226562 C 348.800781 241.773438 348.695312 242.308594 348.589844 242.851562 L 336.527344 242.851562 C 334.390625 242.855469 332.65625 245.402344 332.65625 248.539062 L 332.65625 299.011719 C 332.289062 300.011719 331.917969 301.003906 331.546875 301.996094 C 329.632812 307.113281 327.640625 312.175781 325.601562 317.171875 C 292.390625 398.386719 246.066406 466.347656 190.722656 515.054688 L 193.996094 504.203125 C 192.796875 504.078125 191.589844 503.957031 190.390625 503.835938 C 164.238281 501.210938 137.996094 498.304688 112.457031 489.675781 C 85.738281 480.648438 59.601562 464.992188 38.664062 439.03125 C 17.71875 413.0625 2.367188 375.980469 0.234375 335.859375 C -0.476562 322.070312 0.472656 308.207031 3.042969 294.902344 C 7.949219 269.292969 18.675781 246.25 34.152344 232.617188 C 58.460938 211.207031 90.171875 215.570312 115.800781 233.378906 C 141.421875 251.179688 162.277344 280.648438 182.640625 309.609375 C 162.082031 257.855469 133.453125 213.992188 99.113281 181.621094 C 87.730469 170.929688 75.65625 161.40625 65.980469 147.554688 C 56.308594 133.710938 49.175781 114.300781 50.886719 94.628906 C 52.828125 72.316406 65.277344 55.382812 77.746094 42.328125 C 82.726562 37.113281 87.871094 32.164062 93.171875 27.613281 C 108.132812 14.742188 124.316406 5.035156 141.410156 1.433594 C 164.5625 -3.449219 189.570312 3.960938 207.320312 26.320312 C 227.320312 51.515625 235.519531 92.148438 234.742188 131.019531 C 247.0625 104.726562 266.0625 84.601562 287.523438 83.75 C 309.800781 82.871094 330.976562 103.535156 342.136719 131.855469 C 353.289062 160.171875 355.292969 194.882812 351.125 227.015625 Z M 351.125 227.015625 "/>
<path style=" stroke:none;fill-rule:nonzero;fill:rgb(100%,100%,100%);fill-opacity:1;" d="M 210.171875 336.214844 C 223.21875 334.527344 235.273438 332.554688 247.917969 327.304688 C 260.175781 322.210938 271.96875 313.691406 280.695312 299.773438 C 290.078125 284.804688 295.144531 265.367188 298.71875 246.019531 C 300.710938 235.230469 302.347656 224.289062 303.894531 213.347656 C 305.570312 201.472656 307.058594 189.546875 308.363281 177.570312 C 310.953125 153.726562 312.804688 129.746094 313.914062 105.621094 C 314.046875 102.691406 314.171875 99.761719 314.285156 96.832031 C 314.351562 95.023438 312.4375 95.03125 312.367188 96.832031 C 311.457031 120.613281 309.816406 144.296875 307.449219 167.890625 C 305.113281 191.074219 302.125 214.152344 298.332031 236.917969 C 295.121094 256.203125 290.960938 275.789062 282.722656 291.84375 C 274.996094 306.898438 263.835938 316.738281 251.785156 322.621094 C 239.523438 328.605469 226.59375 330.996094 213.78125 332.773438 C 212.210938 332.992188 211.746094 333.199219 210.171875 333.402344 C 208.953125 333.558594 208.941406 336.371094 210.171875 336.214844 Z M 210.171875 336.214844 "/>
<path style=" stroke:none;fill-rule:nonzero;fill:rgb(100%,100%,100%);fill-opacity:1;" d="M 4.148438 296.976562 C 20.609375 298.316406 36.90625 302.53125 52.6875 309.53125 C 68.480469 316.519531 83.652344 326.214844 97.894531 338.417969 C 111.660156 350.21875 124.433594 364.339844 135.964844 380.492188 C 147.15625 396.179688 157.128906 413.636719 165.703125 432.542969 C 174.316406 451.5 181.453125 471.8125 186.984375 493.101562 C 187.65625 495.707031 188.308594 498.328125 188.933594 500.960938 C 189.335938 502.65625 191.1875 501.925781 190.777344 500.210938 C 185.605469 478.472656 178.785156 457.652344 170.449219 438.148438 C 162.113281 418.640625 152.332031 400.546875 141.28125 384.203125 C 130.050781 367.605469 117.554688 352.96875 104.039062 340.578125 C 75.660156 314.628906 43.496094 298.933594 10.179688 294.773438 C 8.171875 294.527344 6.160156 294.324219 4.148438 294.164062 C 2.914062 294.066406 2.917969 296.878906 4.148438 296.976562 Z M 4.148438 296.976562 "/>
<path style=" stroke:none;fill-rule:nonzero;fill:rgb(100%,100%,100%);fill-opacity:1;" d="M 93.691406 30.910156 C 104.214844 35.824219 114.195312 42.980469 123.304688 52.152344 C 132.609375 61.585938 141.101562 72.652344 148.582031 85.105469 C 156.46875 98.207031 163.476562 112.386719 169.515625 127.453125 C 175.921875 143.363281 181.484375 159.96875 186.160156 177.128906 C 190.972656 194.742188 195.019531 212.789062 198.28125 231.15625 C 201.59375 249.738281 204.179688 268.585938 206.03125 287.601562 C 207.871094 306.417969 208.984375 325.371094 209.367188 344.371094 C 209.75 362.539062 209.386719 380.726562 208.269531 398.828125 C 207.25 415.71875 205.390625 432.476562 202.699219 448.964844 C 200.3125 463.859375 196.949219 478.378906 192.652344 492.316406 C 191.65625 495.480469 190.601562 498.601562 189.484375 501.679688 C 188.90625 503.273438 190.558594 504.695312 191.140625 503.097656 C 195.886719 489.78125 199.675781 475.777344 202.449219 461.3125 C 205.558594 445.207031 207.816406 428.769531 209.195312 412.15625 C 210.722656 394.125 211.464844 375.972656 211.421875 357.808594 C 211.394531 338.722656 210.621094 319.652344 209.105469 300.699219 C 207.585938 281.507812 205.335938 262.453125 202.355469 243.636719 C 199.386719 224.785156 195.621094 206.222656 191.074219 188.058594 C 186.699219 170.476562 181.453125 153.386719 175.390625 136.917969 C 169.613281 121.203125 162.878906 106.285156 155.273438 92.351562 C 148.050781 79.082031 139.804688 67.085938 130.699219 56.605469 C 121.921875 46.527344 112.222656 38.3125 101.882812 32.203125 C 99.355469 30.726562 96.796875 29.390625 94.199219 28.199219 C 93.019531 27.652344 92.515625 30.367188 93.691406 30.910156 Z M 93.691406 30.910156 "/>
<path style=" stroke:none;fill-rule:nonzero;fill:rgb(90.196078%,90.196078%,90.196078%);fill-opacity:1;" d="M 344.277344 511.789062 C 344.277344 507.304688 282.945312 503.664062 207.289062 503.664062 C 131.628906 503.664062 70.296875 507.304688 70.296875 511.789062 C 70.296875 516.277344 131.628906 519.914062 207.289062 519.914062 C 282.945312 519.914062 344.277344 516.277344 344.277344 511.789062 Z M 344.277344 511.789062 "/>
<path style=" stroke:none;fill-rule:nonzero;fill:rgb(100%,72.156863%,72.156863%);fill-opacity:1;" d="M 328.320312 257.308594 C 328.253906 257.746094 328.207031 258.191406 328.1875 258.640625 L 304.410156 278.773438 L 298.632812 273.890625 L 292.46875 285.730469 L 304.835938 298.667969 L 331.960938 267.253906 C 334.226562 268.484375 336.773438 267.527344 338.359375 264.851562 C 339.945312 262.179688 340.238281 258.34375 339.09375 255.21875 C 337.949219 252.097656 335.609375 250.335938 333.214844 250.800781 C 330.820312 251.265625 328.871094 253.855469 328.320312 257.308594 Z M 328.320312 257.308594 "/>
<path style=" stroke:none;fill-rule:nonzero;fill:rgb(45.490196%,62.745098%,39.607843%);fill-opacity:1;" d="M 274.167969 269.660156 L 292.890625 289.246094 L 301.265625 273.835938 L 283.066406 252.402344 C 281.484375 250.535156 279.449219 249.710938 277.4375 250.121094 C 275.429688 250.53125 273.621094 252.136719 272.445312 254.5625 C 270.082031 259.429688 270.851562 266.191406 274.167969 269.660156 Z M 274.167969 269.660156 "/>
<path style=" stroke:none;fill-rule:nonzero;fill:rgb(100%,72.156863%,72.156863%);fill-opacity:1;" d="M 235.523438 493.152344 L 242.089844 495.675781 L 251.847656 459.710938 L 242.160156 455.984375 Z M 235.523438 493.152344 "/>
<path style=" stroke:none;fill-rule:nonzero;fill:rgb(18.431373%,18.039216%,25.490196%);fill-opacity:1;" d="M 253.152344 509.496094 L 232.519531 501.558594 L 234.609375 489.859375 L 247.269531 494.726562 C 251.671875 496.421875 254.304688 503.03125 253.152344 509.496094 Z M 253.152344 509.496094 "/>
<path style=" stroke:none;fill-rule:nonzero;fill:rgb(100%,72.156863%,72.156863%);fill-opacity:1;" d="M 293.875 500.011719 L 300.554688 498.261719 L 299.132812 459.605469 L 289.273438 462.191406 Z M 293.875 500.011719 "/>
<path style=" stroke:none;fill-rule:nonzero;fill:rgb(18.431373%,18.039216%,25.490196%);fill-opacity:1;" d="M 314.546875 503.988281 L 293.550781 509.496094 L 292.101562 497.585938 L 304.984375 494.207031 C 309.464844 493.035156 313.746094 497.414062 314.546875 503.988281 Z M 314.546875 503.988281 "/>
<path style=" stroke:none;fill-rule:nonzero;fill:rgb(18.431373%,18.039216%,25.490196%);fill-opacity:1;" d="M 280.722656 215.726562 C 282.367188 216.3125 283.707031 218.777344 284.511719 221.628906 C 285.253906 224.625 285.753906 227.738281 286.007812 230.902344 C 286.640625 236.796875 287.246094 243.183594 285.941406 248.640625 C 284.40625 255.042969 280.324219 258.394531 276.785156 256.820312 C 273.246094 255.246094 270.429688 249.332031 269.464844 242.523438 C 268.589844 235.648438 269.15625 228.539062 271.085938 222.144531 C 272.089844 218.78125 273.476562 215.679688 275.320312 214.164062 C 277.195312 212.5 279.625 213.246094 280.894531 215.867188 "/>
<path style=" stroke:none;fill-rule:nonzero;fill:rgb(18.431373%,18.039216%,25.490196%);fill-opacity:1;" d="M 290.035156 322.476562 L 302.753906 489.683594 L 292.25 495.539062 L 272.875 383.414062 L 245.90625 485.933594 L 234.410156 486.871094 C 234.410156 486.871094 250.183594 327.351562 261.875 323.726562 Z M 290.035156 322.476562 "/>
<path style=" stroke:none;fill-rule:nonzero;fill:rgb(100%,72.156863%,72.156863%);fill-opacity:1;" d="M 292.949219 217.109375 C 292.949219 228.128906 286.859375 237.066406 279.351562 237.066406 C 271.84375 237.066406 265.757812 228.128906 265.757812 217.109375 C 265.757812 206.085938 271.84375 197.152344 279.351562 197.152344 C 286.859375 197.152344 292.949219 206.085938 292.949219 217.109375 Z M 292.949219 217.109375 "/>
<path style=" stroke:none;fill-rule:nonzero;fill:rgb(45.490196%,62.745098%,39.607843%);fill-opacity:1;" d="M 285.1875 245.4375 L 270.496094 242.625 C 270.496094 242.625 260.917969 259.5 261.554688 288.566406 C 262.195312 317.632812 259.957031 326.539062 259.957031 326.539062 L 290.589844 327.351562 C 286.160156 318.414062 304.679688 267.082031 285.1875 245.4375 Z M 285.1875 245.4375 "/>
<path style=" stroke:none;fill-rule:nonzero;fill:rgb(100%,72.156863%,72.156863%);fill-opacity:1;" d="M 293.078125 331.414062 C 292.773438 331.417969 292.46875 331.457031 292.164062 331.53125 L 273.371094 302.164062 L 275.289062 292.785156 L 266.027344 286.691406 L 260.277344 307.320312 L 287.316406 338.890625 C 287.019531 342.410156 288.234375 345.832031 290.371094 347.488281 C 292.507812 349.140625 295.121094 348.679688 296.929688 346.332031 C 298.738281 343.984375 299.371094 340.238281 298.515625 336.921875 C 297.660156 333.605469 295.496094 331.414062 293.078125 331.414062 Z M 293.078125 331.414062 "/>
<path style=" stroke:none;fill-rule:nonzero;fill:rgb(45.490196%,62.745098%,39.607843%);fill-opacity:1;" d="M 272.496094 256.863281 L 263.789062 288.097656 L 275.925781 296.535156 L 285.976562 265.625 C 286.851562 262.9375 286.929688 259.839844 286.199219 257.0625 C 285.46875 254.28125 283.992188 252.070312 282.113281 250.941406 C 278.34375 248.679688 274.039062 251.328125 272.496094 256.863281 Z M 272.496094 256.863281 "/>
<path style=" stroke:none;fill-rule:nonzero;fill:rgb(18.431373%,18.039216%,25.490196%);fill-opacity:1;" d="M 275.796875 235.25 C 277.925781 233.445312 278.15625 229.097656 277.863281 225.511719 C 277.574219 221.925781 277.09375 217.929688 278.527344 215 C 280.242188 211.5 283.683594 211.429688 286.617188 211.316406 C 289.550781 211.203125 293.125 209.941406 293.882812 205.78125 C 294.386719 203.03125 293.3125 200.078125 291.769531 198.355469 C 290.226562 196.628906 288.296875 195.863281 286.421875 195.140625 C 282.226562 193.515625 277.894531 191.882812 273.597656 192.773438 C 264.746094 194.609375 258.539062 206.550781 259.671875 219.570312 C 260.367188 227.574219 261.375 231.066406 260.714844 234.597656 C 259.480469 241.171875 254.164062 245.394531 254.058594 252.210938 C 253.976562 257.542969 257.183594 261.652344 260.316406 264.363281 C 262.796875 266.507812 265.476562 268.332031 268.339844 268.832031 C 271.199219 269.335938 274.28125 268.375 276.410156 265.527344 C 279.160156 261.855469 279.839844 255.722656 279.050781 250.390625 C 278.265625 245.058594 276.242188 240.324219 274.242188 235.722656 "/>
<path style=" stroke:none;fill-rule:nonzero;fill:rgb(24.705882%,23.921569%,33.72549%);fill-opacity:1;" d="M 533.019531 241.226562 L 336.527344 241.226562 C 333.78125 241.234375 331.550781 244.503906 331.546875 248.539062 L 331.546875 433.789062 C 331.550781 437.828125 333.78125 441.097656 336.527344 441.101562 L 533.019531 441.101562 C 535.769531 441.097656 538 437.828125 538.003906 433.789062 L 538.003906 248.539062 C 538 244.503906 535.769531 241.234375 533.019531 241.226562 Z M 536.894531 433.789062 C 536.894531 436.929688 535.160156 439.472656 533.019531 439.476562 L 336.527344 439.476562 C 334.390625 439.472656 332.65625 436.929688 332.65625 433.789062 L 332.65625 248.539062 C 332.65625 245.402344 334.390625 242.855469 336.527344 242.851562 L 533.019531 242.851562 C 535.160156 242.855469 536.894531 245.402344 536.894531 248.539062 Z M 536.894531 433.789062 "/>
<path style=" stroke:none;fill-rule:nonzero;fill:rgb(45.490196%,62.745098%,39.607843%);fill-opacity:1;" d="M 378.46875 333.441406 L 347.476562 333.441406 C 344.878906 333.4375 342.773438 330.347656 342.769531 326.535156 L 342.769531 281.035156 C 342.773438 277.222656 344.878906 274.136719 347.476562 274.128906 L 378.46875 274.128906 C 381.066406 274.136719 383.171875 277.222656 383.175781 281.035156 L 383.175781 326.535156 C 383.171875 330.347656 381.066406 333.4375 378.46875 333.441406 Z M 378.46875 333.441406 "/>
<path style=" stroke:none;fill-rule:nonzero;fill:rgb(80%,80%,80%);fill-opacity:1;" d="M 522.789062 381.792969 L 346.773438 381.792969 C 344.789062 381.792969 343.175781 379.429688 343.175781 376.511719 C 343.175781 373.597656 344.789062 371.230469 346.773438 371.230469 L 522.789062 371.230469 C 524.773438 371.230469 526.386719 373.597656 526.386719 376.511719 C 526.386719 379.429688 524.773438 381.792969 522.789062 381.792969 Z M 522.789062 381.792969 "/>
<path style=" stroke:none;fill-rule:nonzero;fill:rgb(80%,80%,80%);fill-opacity:1;" d="M 522.90625 356.199219 L 346.894531 356.199219 C 344.90625 356.199219 343.296875 353.835938 343.296875 350.917969 C 343.296875 348.003906 344.90625 345.636719 346.894531 345.636719 L 522.90625 345.636719 C 524.890625 345.636719 526.503906 348.003906 526.503906 350.917969 C 526.503906 353.835938 524.890625 356.199219 522.90625 356.199219 Z M 522.90625 356.199219 "/>
<path style=" stroke:none;fill-rule:nonzero;fill:rgb(80%,80%,80%);fill-opacity:1;" d="M 436.007812 321.253906 L 409.992188 321.253906 C 408.003906 321.253906 406.394531 318.890625 406.394531 315.972656 C 406.394531 313.058594 408.003906 310.691406 409.992188 310.691406 L 436.007812 310.691406 C 437.992188 310.691406 439.605469 313.058594 439.605469 315.972656 C 439.605469 318.890625 437.992188 321.253906 436.007812 321.253906 Z M 436.007812 321.253906 "/>
<path style=" stroke:none;fill-rule:nonzero;fill:rgb(80%,80%,80%);fill-opacity:1;" d="M 522.90625 295.261719 L 409.992188 295.261719 C 408.003906 295.261719 406.394531 292.898438 406.394531 289.980469 C 406.394531 287.066406 408.003906 284.699219 409.992188 284.699219 L 522.90625 284.699219 C 524.890625 284.699219 526.503906 287.066406 526.503906 289.980469 C 526.503906 292.898438 524.890625 295.261719 522.90625 295.261719 Z M 522.90625 295.261719 "/>
<path style=" stroke:none;fill-rule:nonzero;fill:rgb(80%,80%,80%);fill-opacity:1;" d="M 431.578125 407.792969 L 346.773438 407.792969 C 344.789062 407.792969 343.175781 405.429688 343.175781 402.511719 C 343.175781 399.597656 344.789062 397.230469 346.773438 397.230469 L 431.578125 397.230469 C 433.566406 397.230469 435.175781 399.597656 435.175781 402.511719 C 435.175781 405.429688 433.566406 407.792969 431.578125 407.792969 Z M 431.578125 407.792969 "/>
</g>
</svg>
